HIERARCHY
ROOT Hips
{
	OFFSET 0.000000 35.082581 0.000000
	CHANNELS 6 Xposition Yposition Zposition Xrotation Yrotation Zrotation 
	JOINT Spine
	{
		OFFSET 0.000000 6.876099 0.125700
		CHANNELS 3 Xrotation Yrotation Zrotation
		JOINT Spine1
		{
			OFFSET 0.000000 5.730043 0.104720
			CHANNELS 3 Xrotation Yrotation Zrotation
			JOINT Spine1_split
			{
				OFFSET 0.000000 5.730043 0.104720
				CHANNELS 3 Xrotation Yrotation Zrotation
				JOINT Spine2
				{
					OFFSET 0.000000 5.730043 0.104720
					CHANNELS 3 Xrotation Yrotation Zrotation
					JOINT Neck
					{
						OFFSET 0.000000 10.314075 0.188496
						CHANNELS 3 Xrotation Yrotation Zrotation
						JOINT Head
						{
							OFFSET 0.000000 7.643700 -2.377400
							CHANNELS 3 Xrotation Yrotation Zrotation
							JOINT HeadTop_End
							{
								OFFSET 0.000000 43.788605 -13.619600
								CHANNELS 3 Xrotation Yrotation Zrotation
								End Site
								{
									OFFSET 0.000000 0.000000 0.000000
								}
							}
						}
					}
					JOINT LeftShoulder
					{
						OFFSET 2.196100 4.412489 0.087492
						CHANNELS 3 Xrotation Yrotation Zrotation
						JOINT LeftShoulder_split
						{
							OFFSET 2.196100 4.412489 0.087492
							CHANNELS 3 Xrotation Yrotation Zrotation
							JOINT LeftArm
							{
								OFFSET 8.771219 -2.981674 -0.026999
								CHANNELS 3 Xrotation Yrotation Zrotation
								JOINT LeftForeArm
								{
									OFFSET 8.512804 0.000000 -0.000000
									CHANNELS 3 Xrotation Yrotation Zrotation
									JOINT LeftHand
									{
										OFFSET 18.484802 0.000000 -0.000000
										CHANNELS 3 Xrotation Yrotation Zrotation
										JOINT LeftHandThumb1
										{
											OFFSET 2.499420 -1.158070 2.653252
											CHANNELS 3 Xrotation Yrotation Zrotation
											JOINT LeftHandThumb2
											{
												OFFSET 2.370079 -1.368366 1.368366
												CHANNELS 3 Xrotation Yrotation Zrotation
												JOINT LeftHandThumb3
												{
													OFFSET 2.676727 -1.545410 1.545409
													CHANNELS 3 Xrotation Yrotation Zrotation
													JOINT LeftHandThumb4
													{
														OFFSET 1.692226 -0.977005 0.977007
														CHANNELS 3 Xrotation Yrotation Zrotation
														End Site
														{
															OFFSET 0.000000 0.000000 0.000000
														}
													}
												}
											}
										}
										JOINT LeftHandIndex1
										{
											OFFSET 7.924831 -0.457527 2.345128
											CHANNELS 3 Xrotation Yrotation Zrotation
											JOINT LeftHandIndex2
											{
												OFFSET 3.643303 0.000000 0.000000
												CHANNELS 3 Xrotation Yrotation Zrotation
												JOINT LeftHandIndex3
												{
													OFFSET 3.810799 0.000000 0.000000
													CHANNELS 3 Xrotation Yrotation Zrotation
													JOINT LeftHandIndex4
													{
														OFFSET 2.403702 0.000000 0.000000
														CHANNELS 3 Xrotation Yrotation Zrotation
														End Site
														{
															OFFSET 0.000000 0.000000 0.000000
														}
													}
												}
											}
										}
										JOINT LeftHandMiddle1
										{
											OFFSET 8.563995 0.000000 -0.000000
											CHANNELS 3 Xrotation Yrotation Zrotation
											JOINT LeftHandMiddle2
											{
												OFFSET 3.861618 0.000000 0.000000
												CHANNELS 3 Xrotation Yrotation Zrotation
												JOINT LeftHandMiddle3
												{
													OFFSET 3.701603 0.000000 0.000000
													CHANNELS 3 Xrotation Yrotation Zrotation
													JOINT LeftHandMiddle4
													{
														OFFSET 2.322544 0.000000 0.000000
														CHANNELS 3 Xrotation Yrotation Zrotation
														End Site
														{
															OFFSET 0.000000 0.000000 0.000000
														}
													}
												}
											}
										}
										JOINT LeftHandRing1
										{
											OFFSET 8.426460 -0.424637 -3.286992
											CHANNELS 3 Xrotation Yrotation Zrotation
											JOINT LeftHandRing2
											{
												OFFSET 3.126408 0.000000 0.000000
												CHANNELS 3 Xrotation Yrotation Zrotation
												JOINT LeftHandRing3
												{
													OFFSET 3.085026 0.000000 0.000000
													CHANNELS 3 Xrotation Yrotation Zrotation
													JOINT LeftHandRing4
													{
														OFFSET 1.644005 0.000000 0.000000
														CHANNELS 3 Xrotation Yrotation Zrotation
														End Site
														{
															OFFSET 0.000000 0.000000 0.000000
														}
													}
												}
											}
										}
									}
								}
							}
						}
					}
					JOINT RightShoulder
					{
						OFFSET -2.196100 4.412496 0.070690
						CHANNELS 3 Xrotation Yrotation Zrotation
						JOINT RightShoulder_split
						{
							OFFSET -2.196100 4.412496 0.070690
							CHANNELS 3 Xrotation Yrotation Zrotation
							JOINT RightArm
							{
								OFFSET -8.771282 -2.981682 -0.094208
								CHANNELS 3 Xrotation Yrotation Zrotation
								JOINT RightForeArm
								{
									OFFSET -8.494598 0.000000 0.000000
									CHANNELS 3 Xrotation Yrotation Zrotation
									JOINT RightHand
									{
										OFFSET -18.483803 0.000000 0.000001
										CHANNELS 3 Xrotation Yrotation Zrotation
										JOINT RightHandThumb1
										{
											OFFSET -2.527351 -1.008072 2.575253
											CHANNELS 3 Xrotation Yrotation Zrotation
											JOINT RightHandThumb2
											{
												OFFSET -2.321518 -1.340328 1.340329
												CHANNELS 3 Xrotation Yrotation Zrotation
												JOINT RightHandThumb3
												{
													OFFSET -2.657753 -1.534454 1.534455
													CHANNELS 3 Xrotation Yrotation Zrotation
													JOINT RightHandThumb4
													{
														OFFSET -1.807510 -1.043568 1.043567
														CHANNELS 3 Xrotation Yrotation Zrotation
														End Site
														{
															OFFSET 0.000000 0.000000 0.000000
														}
													}
												}
											}
										}
										JOINT RightHandIndex1
										{
											OFFSET -8.811420 0.015533 2.887987
											CHANNELS 3 Xrotation Yrotation Zrotation
											JOINT RightHandIndex2
											{
												OFFSET -3.537502 0.000000 0.000000
												CHANNELS 3 Xrotation Yrotation Zrotation
												JOINT RightHandIndex3
												{
													OFFSET -3.356201 0.000000 0.000000
													CHANNELS 3 Xrotation Yrotation Zrotation
													JOINT RightHandIndex4
													{
														OFFSET -1.933098 0.000000 0.000000
														CHANNELS 3 Xrotation Yrotation Zrotation
														End Site
														{
															OFFSET 0.000000 0.000000 0.000000
														}
													}
												}
											}
										}
										JOINT RightHandMiddle1
										{
											OFFSET -8.178135 0.000000 0.000000
											CHANNELS 3 Xrotation Yrotation Zrotation
											JOINT RightHandMiddle2
											{
												OFFSET -3.901302 0.000000 0.000000
												CHANNELS 3 Xrotation Yrotation Zrotation
												JOINT RightHandMiddle3
												{
													OFFSET -3.909599 0.000000 0.000000
													CHANNELS 3 Xrotation Yrotation Zrotation
													JOINT RightHandMiddle4
													{
														OFFSET -2.376003 0.000000 0.000000
														CHANNELS 3 Xrotation Yrotation Zrotation
														End Site
														{
															OFFSET 0.000000 0.000000 0.000000
														}
													}
												}
											}
										}
										JOINT RightHandRing1
										{
											OFFSET -7.559013 0.014137 -2.865403
											CHANNELS 3 Xrotation Yrotation Zrotation
											JOINT RightHandRing2
											{
												OFFSET -3.449306 0.000000 0.000000
												CHANNELS 3 Xrotation Yrotation Zrotation
												JOINT RightHandRing3
												{
													OFFSET -3.362106 0.000000 0.000000
													CHANNELS 3 Xrotation Yrotation Zrotation
													JOINT RightHandRing4
													{
														OFFSET -2.076401 0.000000 0.000000
														CHANNELS 3 Xrotation Yrotation Zrotation
														End Site
														{
															OFFSET 0.000000 0.000000 0.000000
														}
													}
												}
											}
										}
									}
								}
							}
						}
					}
				}
			}
		}
	}
	JOINT LeftUpLeg
	{
		OFFSET 10.205400 -3.823500 0.155100
		CHANNELS 3 Xrotation Yrotation Zrotation
		JOINT LeftLeg
		{
			OFFSET 0.708757 -12.982077 0.567790
			CHANNELS 3 Xrotation Yrotation Zrotation
			JOINT LeftFoot
			{
				OFFSET -0.708756 -10.717838 -2.184338
				CHANNELS 3 Xrotation Yrotation Zrotation
				JOINT LeftToeBase
				{
					OFFSET 0.108149 -7.191104 7.560241
					CHANNELS 3 Xrotation Yrotation Zrotation
					JOINT LeftToe_End
					{
						OFFSET 0.070230 0.081724 4.490308
						CHANNELS 3 Xrotation Yrotation Zrotation
						End Site
						{
							OFFSET 0.000000 0.000000 0.000000
						}
					}
				}
			}
		}
	}
	JOINT RightUpLeg
	{
		OFFSET -10.205400 -3.823500 0.005500
		CHANNELS 3 Xrotation Yrotation Zrotation
		JOINT RightLeg
		{
			OFFSET -0.708756 -12.982134 0.610632
			CHANNELS 3 Xrotation Yrotation Zrotation
			JOINT RightFoot
			{
				OFFSET 0.708754 -10.717769 -1.945823
				CHANNELS 3 Xrotation Yrotation Zrotation
				JOINT RightToeBase
				{
					OFFSET -0.108140 -7.191069 7.372968
					CHANNELS 3 Xrotation Yrotation Zrotation
					JOINT RightToe_End
					{
						OFFSET -0.070227 0.081735 4.479403
						CHANNELS 3 Xrotation Yrotation Zrotation
						End Site
						{
							OFFSET 0.000000 0.000000 0.000000
						}
					}
				}
			}
		}
	}
}
MOTION
Frames: 6
Frame Time: 0.016667
1.753670 33.745659 -0.300209 -0.900533 1.536105 -4.328512 1.280321 -1.178645 1.985492 0.728743 0.264195 5.944688 0.000000 0.000000 0.000000 0.710789 0.781493 5.852001 1.045308 -0.304693 -2.163989 1.584932 0.544179 -8.140494 0.000000 -0.000000 0.000000 3.582345 -13.764052 -5.044443 0.000000 0.000000 0.000000 4.032786 3.514269 -83.678355 0.000004 -14.506746 0.000032 -27.592513 3.698849 -9.416226 18.491253 -0.461451 10.916077 1.284045 32.757604 -3.088970 2.117132 9.311159 -0.358615 0.000000 -0.000004 -0.000002 0.339561 4.671357 -7.844270 0.387017 2.823573 -20.566210 0.034628 0.816839 -10.169820 0.000000 0.000000 -0.000003 0.912577 8.769266 -15.831738 0.919070 3.991128 -33.400400 0.170572 1.488881 -12.264405 -0.000002 -0.000000 0.000001 2.555802 11.673035 -26.909216 1.710649 3.886778 -40.215454 0.544863 1.835077 -19.344163 -0.000000 0.000001 0.000000 4.508134 3.324371 5.471596 0.000000 0.000000 0.000000 -1.219627 0.655869 67.345426 0.000016 17.736787 -0.000006 -11.193159 -9.123242 10.139299 18.491279 0.461415 -10.916083 1.284056 -32.757615 3.088958 2.008682 -8.430484 1.114716 0.000001 0.000001 0.000002 0.339561 -4.671355 7.844272 0.387023 -2.823583 20.566266 -0.193114 -0.216345 13.843929 0.000000 0.000000 -0.000002 0.912593 -8.769265 15.831752 0.919070 -3.991135 33.400434 0.216470 -1.688826 15.898054 -0.000002 0.000000 0.000000 2.555823 -11.673022 26.909195 1.710659 -3.886782 40.215457 -0.157951 0.035281 17.815338 0.000001 0.000000 -0.000000 -20.377063 10.314369 16.847631 35.350747 7.515151 1.143452 -12.977062 5.644618 -10.861739 -0.419548 -0.000016 0.000003 -0.000000 -0.000002 -0.000000 6.161278 -3.235037 10.903488 2.901394 -5.302023 2.042378 -8.415583 0.767511 -7.484596 -0.524561 -0.000001 -0.000001 0.000000 0.000000 -0.000000 
1.716662 33.748390 -0.302996 -0.850225 1.586589 -4.422909 1.243978 -1.177562 1.997158 0.804995 0.271352 5.942362 0.000000 0.000000 0.000000 0.791297 0.784184 5.830778 0.939036 -0.325876 -2.038776 0.998202 0.423417 -7.945850 0.000000 0.000000 -0.000000 3.578789 -13.707256 -5.015867 0.000000 0.000000 0.000000 3.780826 3.390101 -83.456032 0.000015 -14.511148 -0.000018 -27.318761 4.020875 -9.432623 18.491257 -0.461443 10.916079 1.284049 32.757608 -3.088966 2.117133 9.311160 -0.358622 -0.000000 -0.000002 -0.000000 0.339562 4.671358 -7.844272 0.387017 2.823573 -20.566214 0.034629 0.816838 -10.169820 -0.000000 -0.000000 0.000006 0.912575 8.769267 -15.831738 0.919070 3.991129 -33.400404 0.170571 1.488881 -12.264411 -0.000002 -0.000000 -0.000001 2.555799 11.673033 -26.909214 1.710650 3.886778 -40.215454 0.544864 1.835075 -19.344163 -0.000000 -0.000001 -0.000000 4.481680 3.349434 5.591000 0.000000 0.000000 0.000000 -1.177694 1.237862 67.216240 0.000013 17.736832 0.000010 -11.184846 -8.945792 10.174450 18.491279 0.461421 -10.916079 1.284055 -32.757608 3.088968 2.008682 -8.430473 1.114720 0.000002 0.000003 -0.000000 0.339561 -4.671354 7.844272 0.387023 -2.823584 20.566265 -0.193114 -0.216345 13.843928 0.000000 0.000000 -0.000001 0.912593 -8.769264 15.831757 0.919070 -3.991135 33.400431 0.216469 -1.688826 15.898052 0.000000 -0.000000 0.000001 2.555824 -11.673020 26.909192 1.710659 -3.886781 40.215454 -0.157951 0.035281 17.815338 0.000000 -0.000000 0.000000 -20.544205 10.181485 17.037798 35.451359 7.585635 1.156575 -12.939103 5.553940 -10.988311 -0.419554 -0.000005 0.000000 0.000000 -0.000002 -0.000000 6.464856 -3.033319 11.098204 2.068159 -5.440141 2.080839 -7.966557 0.736445 -7.638506 -0.515477 0.000005 0.000001 0.000000 0.000000 0.000000 
1.680231 33.749699 -0.305197 -0.800832 1.639594 -4.519682 1.207413 -1.185444 2.007547 0.883787 0.274246 5.935622 0.000000 0.000000 0.000000 0.874438 0.782059 5.804659 0.823466 -0.344953 -1.909928 0.389959 0.303444 -7.738951 0.000000 0.000000 0.000000 3.574450 -13.651345 -4.988272 0.000000 0.000000 0.000000 3.522148 3.255682 -83.224619 0.000010 -14.517243 0.000008 -27.029908 4.361263 -9.454724 18.491258 -0.461446 10.916079 1.284047 32.757601 -3.088969 2.117132 9.311161 -0.358616 -0.000003 -0.000005 -0.000001 0.339558 4.671357 -7.844272 0.387020 2.823573 -20.566214 0.034625 0.816837 -10.169821 -0.000001 -0.000000 0.000000 0.912578 8.769266 -15.831742 0.919070 3.991128 -33.400404 0.170570 1.488882 -12.264408 0.000002 -0.000000 -0.000003 2.555806 11.673035 -26.909210 1.710647 3.886779 -40.215461 0.544864 1.835076 -19.344161 0.000001 -0.000001 -0.000000 4.449806 3.381856 5.730771 0.000000 0.000000 0.000000 -1.131087 1.840475 67.077082 0.000011 17.687986 -0.000012 -11.183876 -8.708334 10.219233 18.491282 0.461421 -10.916076 1.284059 -32.757611 3.088962 2.008682 -8.430477 1.114718 0.000002 0.000004 -0.000000 0.339560 -4.671354 7.844273 0.387023 -2.823584 20.566265 -0.193114 -0.216345 13.843930 0.000000 0.000000 -0.000003 0.912593 -8.769264 15.831757 0.919069 -3.991137 33.400438 0.216469 -1.688826 15.898052 -0.000000 0.000000 0.000003 2.555823 -11.673021 26.909195 1.710660 -3.886782 40.215457 -0.157951 0.035282 17.815338 0.000000 -0.000000 -0.000000 -20.719200 10.044988 17.227390 35.571010 7.646184 1.175633 -12.911753 5.473258 -11.115826 -0.419547 -0.000012 0.000002 0.000000 0.000005 -0.000000 6.756709 -2.831401 11.292377 1.265678 -5.580681 2.117440 -7.531631 0.705520 -7.787211 -0.510270 -0.000004 -0.000001 0.000000 -0.000001 0.000000 
1.645364 33.746952 -0.305710 -0.753696 1.699447 -4.621331 1.170861 -1.201690 2.016166 0.965308 0.273020 5.924296 0.000000 0.000000 0.000000 0.960401 0.775222 5.773463 0.698737 -0.362127 -1.777485 -0.238802 0.182365 -7.518666 -0.000000 0.000000 -0.000000 3.569238 -13.596756 -4.962275 0.000000 0.000000 0.000000 3.256757 3.110472 -82.983137 0.000009 -14.524935 -0.000005 -26.724493 4.721303 -9.483401 18.491255 -0.461443 10.916076 1.284048 32.757604 -3.088970 2.117133 9.311160 -0.358618 -0.000001 -0.000001 -0.000002 0.339560 4.671357 -7.844272 0.387018 2.823573 -20.566212 0.034626 0.816836 -10.169817 0.000001 -0.000000 0.000003 0.912580 8.769266 -15.831740 0.919068 3.991129 -33.400407 0.170572 1.488880 -12.264412 -0.000000 0.000000 -0.000001 2.555801 11.673035 -26.909210 1.710649 3.886776 -40.215450 0.544863 1.835077 -19.344165 -0.000001 -0.000000 -0.000000 4.412050 3.421895 5.891992 0.000000 0.000000 0.000000 -1.079196 2.463878 66.927173 -0.000006 17.587218 0.000011 -11.191051 -8.406584 10.273786 18.491277 0.461417 -10.916077 1.284057 -32.757608 3.088963 2.008679 -8.430474 1.114716 -0.000000 0.000000 0.000003 0.339560 -4.671354 7.844273 0.387023 -2.823583 20.566268 -0.193114 -0.216345 13.843922 -0.000000 0.000000 -0.000002 0.912592 -8.769264 15.831754 0.919070 -3.991135 33.400438 0.216468 -1.688827 15.898052 -0.000000 0.000000 -0.000001 2.555824 -11.673021 26.909188 1.710660 -3.886783 40.215457 -0.157953 0.035281 17.815334 -0.000002 0.000000 0.000000 -20.916858 9.899574 17.415041 35.745740 7.679957 1.209462 -12.915913 5.419591 -11.245481 -0.419553 -0.000004 0.000001 0.000000 -0.000002 -0.000000 6.999832 -2.634822 11.489481 0.581545 -5.725301 2.136658 -7.153296 0.673811 -7.911851 -0.514966 0.000007 -0.000004 0.000000 0.000000 -0.000000 
1.610792 33.741459 -0.305365 -0.708486 1.763118 -4.728885 1.134573 -1.227531 2.023292 1.050319 0.266991 5.907280 0.000000 0.000000 0.000000 1.049969 0.762834 5.735966 0.563218 -0.377230 -1.640718 -0.891137 0.058435 -7.280996 -0.000000 -0.000000 -0.000000 3.562868 -13.544205 -4.938704 0.000000 0.000000 0.000000 2.983155 2.951942 -82.727859 0.000019 -14.534477 0.000025 -26.397667 5.106595 -9.520514 18.491257 -0.461443 10.916077 1.284046 32.757604 -3.088969 2.117130 9.311155 -0.358617 -0.000003 -0.000002 -0.000000 0.339561 4.671357 -7.844272 0.387020 2.823573 -20.566208 0.034625 0.816836 -10.169819 -0.000000 0.000000 0.000000 0.912577 8.769266 -15.831740 0.919067 3.991127 -33.400404 0.170570 1.488881 -12.264411 -0.000001 -0.000000 -0.000000 2.555801 11.673033 -26.909210 1.710651 3.886778 -40.215450 0.544861 1.835075 -19.344165 0.000001 -0.000000 0.000000 4.366725 3.471363 6.080130 0.000000 0.000000 0.000000 -1.020834 3.112637 66.763077 0.000010 17.420845 0.000008 -11.208925 -8.022988 10.340274 18.491279 0.461420 -10.916078 1.284056 -32.757611 3.088964 2.008680 -8.430476 1.114720 0.000001 0.000001 0.000002 0.339561 -4.671354 7.844276 0.387023 -2.823583 20.566268 -0.193114 -0.216345 13.843933 -0.000000 0.000000 -0.000002 0.912593 -8.769265 15.831754 0.919071 -3.991136 33.400431 0.216469 -1.688826 15.898056 -0.000001 -0.000000 -0.000001 2.555823 -11.673021 26.909195 1.710660 -3.886783 40.215454 -0.157952 0.035280 17.815336 -0.000000 0.000000 -0.000000 -21.131543 9.745731 17.605972 35.960102 7.696009 1.254406 -12.940878 5.384492 -11.380012 -0.419550 -0.000009 0.000001 0.000000 -0.000002 0.000000 7.215225 -2.440421 11.693775 -0.036348 -5.870880 2.142720 -6.804149 0.640974 -8.022219 -0.526940 -0.000003 -0.000002 0.000000 0.000001 0.000000 
1.575593 33.733593 -0.304660 -0.665160 1.830113 -4.844090 1.098904 -1.262697 2.029187 1.139288 0.256126 5.883983 0.000000 0.000000 0.000000 1.143614 0.744760 5.691528 0.416457 -0.390481 -1.499482 -1.566794 -0.071324 -7.023366 -0.000000 0.000000 0.000000 3.555125 -13.494542 -4.918646 0.000000 0.000000 0.000000 2.700898 2.778625 -82.456414 -0.000009 -14.545817 -0.000031 -26.045815 5.520622 -9.567862 18.491253 -0.461449 10.916075 1.284044 32.757608 -3.088966 2.117132 9.311164 -0.358617 -0.000002 -0.000002 -0.000000 0.339561 4.671356 -7.844270 0.387021 2.823574 -20.566217 0.034626 0.816838 -10.169823 -0.000001 0.000001 -0.000002 0.912578 8.769267 -15.831740 0.919071 3.991128 -33.400404 0.170572 1.488882 -12.264409 0.000001 -0.000000 0.000001 2.555800 11.673033 -26.909214 1.710648 3.886776 -40.215457 0.544863 1.835077 -19.344163 -0.000001 0.000000 0.000000 4.312639 3.531187 6.298349 0.000000 0.000000 0.000000 -0.954854 3.788348 66.582637 -0.000001 17.180395 -0.000008 -11.239391 -7.545961 10.419507 18.491279 0.461420 -10.916077 1.284058 -32.757611 3.088961 2.008678 -8.430479 1.114716 -0.000001 0.000001 0.000002 0.339560 -4.671354 7.844273 0.387023 -2.823583 20.566265 -0.193114 -0.216345 13.843932 -0.000000 -0.000000 -0.000001 0.912593 -8.769265 15.831757 0.919071 -3.991135 33.400438 0.216470 -1.688826 15.898052 -0.000000 0.000000 -0.000000 2.555824 -11.673024 26.909197 1.710659 -3.886783 40.215454 -0.157952 0.035280 17.815334 -0.000001 -0.000001 -0.000000 -21.363442 9.581639 17.803826 36.210979 7.696453 1.310612 -12.982668 5.366294 -11.521985 -0.419552 -0.000006 0.000003 -0.000000 0.000001 0.000000 7.410256 -2.246868 11.910205 -0.607522 -6.016374 2.135477 -6.473298 0.606721 -8.121951 -0.545653 0.000002 0.000002 0.000000 0.000001 -0.000000 
